<svg width="32" height="32" viewBox="0 0 32 32" xmlns="http://www.w3.org/2000/svg">
  <defs>
    <linearGradient id="brainGradient" x1="0%" y1="0%" x2="100%" y2="100%">
      <stop offset="0%" style="stop-color:#667eea;stop-opacity:1" />
      <stop offset="100%" style="stop-color:#764ba2;stop-opacity:1" />
    </linearGradient>
  </defs>
  
  <!-- Background circle -->
  <circle cx="16" cy="16" r="15" fill="url(#brainGradient)" stroke="none"/>
  
  <!-- Brain emoji-style icon -->
  <g transform="translate(8, 6)">
    <!-- Left brain hemisphere -->
    <path d="M2 8 C2 4, 5 2, 8 4 C8 2, 10 2, 10 4 C12 2, 14 4, 14 8 C14 12, 12 16, 8 16 C5 16, 2 12, 2 8 Z" 
          fill="#ffffff" opacity="0.95"/>
    
    <!-- Right brain hemisphere -->
    <path d="M14 8 C14 4, 11 2, 8 4 C8 2, 6 2, 6 4 C4 2, 2 4, 2 8 C2 12, 4 16, 8 16 C11 16, 14 12, 14 8 Z" 
          fill="#ffffff" opacity="0.85" transform="translate(16, 0) scale(-1, 1)"/>
    
    <!-- Brain folds/details -->
    <path d="M4 6 C6 7, 8 6, 10 7 C12 6, 14 7, 16 6" 
          stroke="#667eea" stroke-width="0.8" fill="none" opacity="0.6"/>
    <path d="M4 9 C6 10, 8 9, 10 10 C12 9, 14 10, 16 9" 
          stroke="#667eea" stroke-width="0.8" fill="none" opacity="0.6"/>
    <path d="M4 12 C6 13, 8 12, 10 13 C12 12, 14 13, 16 12" 
          stroke="#667eea" stroke-width="0.8" fill="none" opacity="0.6"/>
  </g>
</svg>